<mxfile host="app.diagrams.net" modified="2022-10-29T13:26:27.815Z" agent="5.0 (Windows NT 10.0; Win64; x64) AppleWebKit/537.36 (KHTML, like Gecko) Chrome/105.0.0.0 Safari/537.36" etag="LH9L3XRq63ZeIOPOENY6" version="20.5.1" type="github">
  <diagram id="eghM6rk3tN9IDZ9GqWnW" name="Page-1">
    <mxGraphModel dx="2240" dy="1930" grid="1" gridSize="10" guides="1" tooltips="1" connect="1" arrows="1" fold="1" page="1" pageScale="1" pageWidth="827" pageHeight="1169" math="0" shadow="0">
      <root>
        <mxCell id="0" />
        <mxCell id="1" parent="0" />
        <mxCell id="U_4kd8qJBXth_c7u4eLx-2" value="" style="rounded=0;whiteSpace=wrap;html=1;" parent="1" vertex="1">
          <mxGeometry x="370" y="110" width="410" height="220" as="geometry" />
        </mxCell>
        <mxCell id="U_4kd8qJBXth_c7u4eLx-23" value="" style="rounded=0;whiteSpace=wrap;html=1;shadow=0;" parent="1" vertex="1">
          <mxGeometry x="605" y="125" width="30" height="195" as="geometry" />
        </mxCell>
        <mxCell id="U_4kd8qJBXth_c7u4eLx-24" value="" style="rounded=0;whiteSpace=wrap;html=1;shadow=0;" parent="1" vertex="1">
          <mxGeometry x="680" y="125" width="30" height="195" as="geometry" />
        </mxCell>
        <mxCell id="U_4kd8qJBXth_c7u4eLx-19" value="" style="rounded=0;whiteSpace=wrap;html=1;shadow=0;" parent="1" vertex="1">
          <mxGeometry x="450" y="122.5" width="30" height="195" as="geometry" />
        </mxCell>
        <mxCell id="U_4kd8qJBXth_c7u4eLx-21" value="" style="rounded=0;whiteSpace=wrap;html=1;shadow=0;" parent="1" vertex="1">
          <mxGeometry x="515" y="125" width="30" height="195" as="geometry" />
        </mxCell>
        <mxCell id="U_4kd8qJBXth_c7u4eLx-4" value="" style="rounded=0;whiteSpace=wrap;html=1;" parent="1" vertex="1">
          <mxGeometry x="-30" y="110" width="380" height="240" as="geometry" />
        </mxCell>
        <mxCell id="U_4kd8qJBXth_c7u4eLx-26" style="edgeStyle=orthogonalEdgeStyle;rounded=0;orthogonalLoop=1;jettySize=auto;html=1;exitX=1;exitY=0.5;exitDx=0;exitDy=0;entryX=0;entryY=0.5;entryDx=0;entryDy=0;" parent="1" source="U_4kd8qJBXth_c7u4eLx-5" target="U_4kd8qJBXth_c7u4eLx-17" edge="1">
          <mxGeometry relative="1" as="geometry" />
        </mxCell>
        <mxCell id="U_4kd8qJBXth_c7u4eLx-5" value="开始游戏" style="rounded=0;whiteSpace=wrap;html=1;" parent="1" vertex="1">
          <mxGeometry x="120" y="202.5" width="120" height="50" as="geometry" />
        </mxCell>
        <mxCell id="U_4kd8qJBXth_c7u4eLx-73" style="edgeStyle=orthogonalEdgeStyle;rounded=0;orthogonalLoop=1;jettySize=auto;html=1;exitX=1;exitY=0.5;exitDx=0;exitDy=0;entryX=0;entryY=0.613;entryDx=0;entryDy=0;entryPerimeter=0;" parent="1" source="U_4kd8qJBXth_c7u4eLx-6" target="U_4kd8qJBXth_c7u4eLx-43" edge="1">
          <mxGeometry relative="1" as="geometry">
            <Array as="points">
              <mxPoint x="340" y="290" />
              <mxPoint x="340" y="501" />
            </Array>
          </mxGeometry>
        </mxCell>
        <mxCell id="U_4kd8qJBXth_c7u4eLx-6" value="世界杯预言帝" style="rounded=0;whiteSpace=wrap;html=1;" parent="1" vertex="1">
          <mxGeometry x="120" y="260" width="120" height="40" as="geometry" />
        </mxCell>
        <mxCell id="U_4kd8qJBXth_c7u4eLx-8" value="冠亚季军头像" style="rounded=0;whiteSpace=wrap;html=1;" parent="1" vertex="1">
          <mxGeometry x="80" y="110" width="200" height="90" as="geometry" />
        </mxCell>
        <mxCell id="U_4kd8qJBXth_c7u4eLx-10" value="左摇杆" style="ellipse;whiteSpace=wrap;html=1;aspect=fixed;shadow=0;" parent="1" vertex="1">
          <mxGeometry x="380" y="250" width="80" height="80" as="geometry" />
        </mxCell>
        <mxCell id="U_4kd8qJBXth_c7u4eLx-11" value="右摇杆" style="ellipse;whiteSpace=wrap;html=1;aspect=fixed;shadow=0;" parent="1" vertex="1">
          <mxGeometry x="690" y="250" width="80" height="80" as="geometry" />
        </mxCell>
        <mxCell id="U_4kd8qJBXth_c7u4eLx-12" value="头像：3分" style="rounded=0;whiteSpace=wrap;html=1;shadow=0;" parent="1" vertex="1">
          <mxGeometry x="370" y="115" width="110" height="30" as="geometry" />
        </mxCell>
        <mxCell id="U_4kd8qJBXth_c7u4eLx-13" value="设置" style="ellipse;whiteSpace=wrap;html=1;shadow=0;" parent="1" vertex="1">
          <mxGeometry x="230" y="115" width="50" height="25" as="geometry" />
        </mxCell>
        <mxCell id="U_4kd8qJBXth_c7u4eLx-87" style="edgeStyle=orthogonalEdgeStyle;rounded=0;orthogonalLoop=1;jettySize=auto;html=1;exitX=0.5;exitY=1;exitDx=0;exitDy=0;entryX=0;entryY=0.5;entryDx=0;entryDy=0;" parent="1" source="zyrNzVNy1EQZd9AmBoAl-2" target="U_4kd8qJBXth_c7u4eLx-82" edge="1">
          <mxGeometry relative="1" as="geometry" />
        </mxCell>
        <mxCell id="U_4kd8qJBXth_c7u4eLx-14" value="成就" style="rounded=0;whiteSpace=wrap;html=1;shadow=0;" parent="1" vertex="1">
          <mxGeometry x="120" y="310" width="120" height="40" as="geometry" />
        </mxCell>
        <mxCell id="U_4kd8qJBXth_c7u4eLx-17" value="球门" style="rounded=0;whiteSpace=wrap;html=1;shadow=0;" parent="1" vertex="1">
          <mxGeometry x="370" y="160" width="30" height="90" as="geometry" />
        </mxCell>
        <mxCell id="U_4kd8qJBXth_c7u4eLx-40" style="edgeStyle=orthogonalEdgeStyle;rounded=0;orthogonalLoop=1;jettySize=auto;html=1;exitX=1;exitY=0.5;exitDx=0;exitDy=0;" parent="1" source="U_4kd8qJBXth_c7u4eLx-18" target="U_4kd8qJBXth_c7u4eLx-35" edge="1">
          <mxGeometry relative="1" as="geometry" />
        </mxCell>
        <mxCell id="U_4kd8qJBXth_c7u4eLx-18" value="球门" style="rounded=0;whiteSpace=wrap;html=1;shadow=0;" parent="1" vertex="1">
          <mxGeometry x="750" y="160" width="30" height="90" as="geometry" />
        </mxCell>
        <mxCell id="U_4kd8qJBXth_c7u4eLx-27" value="" style="rounded=0;whiteSpace=wrap;html=1;" parent="1" vertex="1">
          <mxGeometry x="860" y="115" width="410" height="220" as="geometry" />
        </mxCell>
        <mxCell id="U_4kd8qJBXth_c7u4eLx-28" value="" style="rounded=0;whiteSpace=wrap;html=1;shadow=0;" parent="1" vertex="1">
          <mxGeometry x="1095" y="130" width="30" height="195" as="geometry" />
        </mxCell>
        <mxCell id="U_4kd8qJBXth_c7u4eLx-29" value="" style="rounded=0;whiteSpace=wrap;html=1;shadow=0;" parent="1" vertex="1">
          <mxGeometry x="1170" y="130" width="30" height="195" as="geometry" />
        </mxCell>
        <mxCell id="U_4kd8qJBXth_c7u4eLx-30" value="" style="rounded=0;whiteSpace=wrap;html=1;shadow=0;" parent="1" vertex="1">
          <mxGeometry x="940" y="127.5" width="30" height="195" as="geometry" />
        </mxCell>
        <mxCell id="U_4kd8qJBXth_c7u4eLx-31" value="" style="rounded=0;whiteSpace=wrap;html=1;shadow=0;" parent="1" vertex="1">
          <mxGeometry x="1005" y="130" width="30" height="195" as="geometry" />
        </mxCell>
        <mxCell id="U_4kd8qJBXth_c7u4eLx-32" value="左摇杆" style="ellipse;whiteSpace=wrap;html=1;aspect=fixed;shadow=0;" parent="1" vertex="1">
          <mxGeometry x="870" y="255" width="80" height="80" as="geometry" />
        </mxCell>
        <mxCell id="U_4kd8qJBXth_c7u4eLx-33" value="右摇杆" style="ellipse;whiteSpace=wrap;html=1;aspect=fixed;shadow=0;" parent="1" vertex="1">
          <mxGeometry x="1180" y="255" width="80" height="80" as="geometry" />
        </mxCell>
        <mxCell id="U_4kd8qJBXth_c7u4eLx-34" value="比分 3&amp;nbsp; &amp;nbsp; ： 1" style="rounded=0;whiteSpace=wrap;html=1;shadow=0;" parent="1" vertex="1">
          <mxGeometry x="1005" y="115" width="120" height="30" as="geometry" />
        </mxCell>
        <mxCell id="U_4kd8qJBXth_c7u4eLx-35" value="球门" style="rounded=0;whiteSpace=wrap;html=1;shadow=0;" parent="1" vertex="1">
          <mxGeometry x="860" y="165" width="30" height="90" as="geometry" />
        </mxCell>
        <mxCell id="U_4kd8qJBXth_c7u4eLx-36" value="球门" style="rounded=0;whiteSpace=wrap;html=1;shadow=0;" parent="1" vertex="1">
          <mxGeometry x="1240" y="165" width="30" height="90" as="geometry" />
        </mxCell>
        <mxCell id="U_4kd8qJBXth_c7u4eLx-37" value="看广告重开" style="swimlane;shadow=0;gradientColor=#ffffff;swimlaneFillColor=default;" parent="1" vertex="1">
          <mxGeometry x="930" y="135" width="280" height="165" as="geometry" />
        </mxCell>
        <mxCell id="U_4kd8qJBXth_c7u4eLx-39" value="看视频重开" style="rounded=0;whiteSpace=wrap;html=1;shadow=0;gradientColor=#ffffff;" parent="U_4kd8qJBXth_c7u4eLx-37" vertex="1">
          <mxGeometry x="170" y="55" width="90" height="60" as="geometry" />
        </mxCell>
        <mxCell id="zyrNzVNy1EQZd9AmBoAl-6" value="分享重开" style="rounded=0;whiteSpace=wrap;html=1;shadow=0;gradientColor=#ffffff;" vertex="1" parent="U_4kd8qJBXth_c7u4eLx-37">
          <mxGeometry x="30" y="55" width="90" height="60" as="geometry" />
        </mxCell>
        <mxCell id="U_4kd8qJBXth_c7u4eLx-43" value="" style="rounded=0;whiteSpace=wrap;html=1;shadow=0;gradientColor=#ffffff;" parent="1" vertex="1">
          <mxGeometry x="370" y="360" width="410" height="230" as="geometry" />
        </mxCell>
        <mxCell id="U_4kd8qJBXth_c7u4eLx-44" value="vs" style="rounded=0;whiteSpace=wrap;html=1;shadow=0;gradientColor=#ffffff;" parent="1" vertex="1">
          <mxGeometry x="405" y="380" width="355" height="20" as="geometry" />
        </mxCell>
        <mxCell id="U_4kd8qJBXth_c7u4eLx-46" value="法国" style="ellipse;whiteSpace=wrap;html=1;aspect=fixed;shadow=0;gradientColor=#ffffff;" parent="1" vertex="1">
          <mxGeometry x="390" y="360" width="60" height="60" as="geometry" />
        </mxCell>
        <mxCell id="U_4kd8qJBXth_c7u4eLx-47" value="德国" style="ellipse;whiteSpace=wrap;html=1;aspect=fixed;shadow=0;gradientColor=#ffffff;" parent="1" vertex="1">
          <mxGeometry x="710" y="360" width="60" height="60" as="geometry" />
        </mxCell>
        <mxCell id="U_4kd8qJBXth_c7u4eLx-48" value="" style="ellipse;whiteSpace=wrap;html=1;aspect=fixed;shadow=0;gradientColor=#ffffff;" parent="1" vertex="1">
          <mxGeometry x="390" y="435" width="35" height="35" as="geometry" />
        </mxCell>
        <mxCell id="U_4kd8qJBXth_c7u4eLx-49" value="" style="ellipse;whiteSpace=wrap;html=1;aspect=fixed;shadow=0;gradientColor=#ffffff;" parent="1" vertex="1">
          <mxGeometry x="430" y="435" width="35" height="35" as="geometry" />
        </mxCell>
        <mxCell id="U_4kd8qJBXth_c7u4eLx-50" value="" style="ellipse;whiteSpace=wrap;html=1;aspect=fixed;shadow=0;gradientColor=#ffffff;" parent="1" vertex="1">
          <mxGeometry x="480" y="435" width="35" height="35" as="geometry" />
        </mxCell>
        <mxCell id="U_4kd8qJBXth_c7u4eLx-51" value="" style="ellipse;whiteSpace=wrap;html=1;aspect=fixed;shadow=0;gradientColor=#ffffff;" parent="1" vertex="1">
          <mxGeometry x="530" y="435" width="35" height="35" as="geometry" />
        </mxCell>
        <mxCell id="U_4kd8qJBXth_c7u4eLx-54" value="支持一票" style="rounded=0;whiteSpace=wrap;html=1;shadow=0;gradientColor=#ffffff;" parent="1" vertex="1">
          <mxGeometry x="390" y="540" width="110" height="40" as="geometry" />
        </mxCell>
        <mxCell id="U_4kd8qJBXth_c7u4eLx-55" value="支持一票" style="rounded=0;whiteSpace=wrap;html=1;shadow=0;gradientColor=#ffffff;" parent="1" vertex="1">
          <mxGeometry x="660" y="540" width="110" height="40" as="geometry" />
        </mxCell>
        <mxCell id="U_4kd8qJBXth_c7u4eLx-58" value="" style="rounded=0;whiteSpace=wrap;html=1;" parent="1" vertex="1">
          <mxGeometry x="780" y="710" width="410" height="220" as="geometry" />
        </mxCell>
        <mxCell id="U_4kd8qJBXth_c7u4eLx-59" value="" style="rounded=0;whiteSpace=wrap;html=1;shadow=0;" parent="1" vertex="1">
          <mxGeometry x="1015" y="730" width="30" height="190" as="geometry" />
        </mxCell>
        <mxCell id="U_4kd8qJBXth_c7u4eLx-60" value="" style="rounded=0;whiteSpace=wrap;html=1;shadow=0;" parent="1" vertex="1">
          <mxGeometry x="1090" y="725" width="30" height="195" as="geometry" />
        </mxCell>
        <mxCell id="U_4kd8qJBXth_c7u4eLx-61" value="" style="rounded=0;whiteSpace=wrap;html=1;shadow=0;" parent="1" vertex="1">
          <mxGeometry x="860" y="722.5" width="30" height="195" as="geometry" />
        </mxCell>
        <mxCell id="U_4kd8qJBXth_c7u4eLx-62" value="" style="rounded=0;whiteSpace=wrap;html=1;shadow=0;" parent="1" vertex="1">
          <mxGeometry x="925" y="725" width="30" height="195" as="geometry" />
        </mxCell>
        <mxCell id="U_4kd8qJBXth_c7u4eLx-63" value="左摇杆" style="ellipse;whiteSpace=wrap;html=1;aspect=fixed;shadow=0;" parent="1" vertex="1">
          <mxGeometry x="790" y="850" width="80" height="80" as="geometry" />
        </mxCell>
        <mxCell id="U_4kd8qJBXth_c7u4eLx-64" value="右摇杆" style="ellipse;whiteSpace=wrap;html=1;aspect=fixed;shadow=0;" parent="1" vertex="1">
          <mxGeometry x="1100" y="850" width="80" height="80" as="geometry" />
        </mxCell>
        <mxCell id="U_4kd8qJBXth_c7u4eLx-65" value="比分 3&amp;nbsp; &amp;nbsp; ： 1" style="rounded=0;whiteSpace=wrap;html=1;shadow=0;" parent="1" vertex="1">
          <mxGeometry x="925" y="710" width="120" height="30" as="geometry" />
        </mxCell>
        <mxCell id="U_4kd8qJBXth_c7u4eLx-66" value="球门" style="rounded=0;whiteSpace=wrap;html=1;shadow=0;" parent="1" vertex="1">
          <mxGeometry x="780" y="760" width="30" height="90" as="geometry" />
        </mxCell>
        <mxCell id="U_4kd8qJBXth_c7u4eLx-67" value="球门" style="rounded=0;whiteSpace=wrap;html=1;shadow=0;" parent="1" vertex="1">
          <mxGeometry x="1160" y="760" width="30" height="90" as="geometry" />
        </mxCell>
        <mxCell id="U_4kd8qJBXth_c7u4eLx-69" value="头像" style="ellipse;whiteSpace=wrap;html=1;aspect=fixed;shadow=0;gradientColor=#ffffff;" parent="1" vertex="1">
          <mxGeometry x="788" y="713" width="27" height="27" as="geometry" />
        </mxCell>
        <mxCell id="U_4kd8qJBXth_c7u4eLx-70" value="头像" style="ellipse;whiteSpace=wrap;html=1;aspect=fixed;shadow=0;gradientColor=#ffffff;" parent="1" vertex="1">
          <mxGeometry x="1160" y="713" width="27" height="27" as="geometry" />
        </mxCell>
        <mxCell id="zyrNzVNy1EQZd9AmBoAl-20" style="edgeStyle=orthogonalEdgeStyle;rounded=0;orthogonalLoop=1;jettySize=auto;html=1;exitX=0.5;exitY=0;exitDx=0;exitDy=0;entryX=0;entryY=0.5;entryDx=0;entryDy=0;" edge="1" parent="1" source="U_4kd8qJBXth_c7u4eLx-42" target="zyrNzVNy1EQZd9AmBoAl-7">
          <mxGeometry relative="1" as="geometry" />
        </mxCell>
        <mxCell id="U_4kd8qJBXth_c7u4eLx-42" value="皮肤" style="ellipse;whiteSpace=wrap;html=1;aspect=fixed;shadow=0;gradientColor=#ffffff;" parent="1" vertex="1">
          <mxGeometry x="285" y="110" width="50" height="50" as="geometry" />
        </mxCell>
        <mxCell id="U_4kd8qJBXth_c7u4eLx-88" style="edgeStyle=orthogonalEdgeStyle;rounded=0;orthogonalLoop=1;jettySize=auto;html=1;exitX=1;exitY=0.5;exitDx=0;exitDy=0;entryX=0;entryY=0.75;entryDx=0;entryDy=0;" parent="1" source="U_4kd8qJBXth_c7u4eLx-74" target="U_4kd8qJBXth_c7u4eLx-66" edge="1">
          <mxGeometry relative="1" as="geometry" />
        </mxCell>
        <mxCell id="U_4kd8qJBXth_c7u4eLx-74" value="" style="rounded=0;whiteSpace=wrap;html=1;" parent="1" vertex="1">
          <mxGeometry x="325" y="715" width="410" height="220" as="geometry" />
        </mxCell>
        <mxCell id="U_4kd8qJBXth_c7u4eLx-77" value="" style="rounded=0;whiteSpace=wrap;html=1;shadow=0;" parent="1" vertex="1">
          <mxGeometry x="405" y="727.5" width="30" height="195" as="geometry" />
        </mxCell>
        <mxCell id="U_4kd8qJBXth_c7u4eLx-78" value="" style="rounded=0;whiteSpace=wrap;html=1;shadow=0;" parent="1" vertex="1">
          <mxGeometry x="470" y="730" width="30" height="195" as="geometry" />
        </mxCell>
        <mxCell id="U_4kd8qJBXth_c7u4eLx-79" value="左摇杆" style="ellipse;whiteSpace=wrap;html=1;aspect=fixed;shadow=0;" parent="1" vertex="1">
          <mxGeometry x="335" y="855" width="80" height="80" as="geometry" />
        </mxCell>
        <mxCell id="U_4kd8qJBXth_c7u4eLx-81" value="比分 3&amp;nbsp; &amp;nbsp; ： 1" style="rounded=0;whiteSpace=wrap;html=1;shadow=0;" parent="1" vertex="1">
          <mxGeometry x="470" y="715" width="120" height="30" as="geometry" />
        </mxCell>
        <mxCell id="U_4kd8qJBXth_c7u4eLx-82" value="球门" style="rounded=0;whiteSpace=wrap;html=1;shadow=0;" parent="1" vertex="1">
          <mxGeometry x="325" y="765" width="30" height="90" as="geometry" />
        </mxCell>
        <mxCell id="U_4kd8qJBXth_c7u4eLx-84" value="头像" style="ellipse;whiteSpace=wrap;html=1;aspect=fixed;shadow=0;gradientColor=#ffffff;" parent="1" vertex="1">
          <mxGeometry x="333" y="718" width="27" height="27" as="geometry" />
        </mxCell>
        <mxCell id="U_4kd8qJBXth_c7u4eLx-85" value="邀请朋友pvp" style="ellipse;whiteSpace=wrap;html=1;aspect=fixed;shadow=0;gradientColor=#ffffff;" parent="1" vertex="1">
          <mxGeometry x="605" y="745" width="80" height="80" as="geometry" />
        </mxCell>
        <mxCell id="U_4kd8qJBXth_c7u4eLx-86" value="随机pvp" style="ellipse;whiteSpace=wrap;html=1;aspect=fixed;shadow=0;gradientColor=#ffffff;" parent="1" vertex="1">
          <mxGeometry x="605" y="836" width="80" height="80" as="geometry" />
        </mxCell>
        <mxCell id="zyrNzVNy1EQZd9AmBoAl-2" value="pvp" style="rounded=0;whiteSpace=wrap;html=1;shadow=0;" vertex="1" parent="1">
          <mxGeometry x="120" y="360" width="120" height="40" as="geometry" />
        </mxCell>
        <mxCell id="zyrNzVNy1EQZd9AmBoAl-3" value="倒计时：60" style="rounded=0;whiteSpace=wrap;html=1;" vertex="1" parent="1">
          <mxGeometry x="524" y="107.5" width="102" height="45" as="geometry" />
        </mxCell>
        <mxCell id="zyrNzVNy1EQZd9AmBoAl-4" value="头像：1分" style="rounded=0;whiteSpace=wrap;html=1;shadow=0;" vertex="1" parent="1">
          <mxGeometry x="670" y="112.5" width="110" height="30" as="geometry" />
        </mxCell>
        <mxCell id="zyrNzVNy1EQZd9AmBoAl-5" value="头像，体力：10" style="rounded=0;whiteSpace=wrap;html=1;" vertex="1" parent="1">
          <mxGeometry x="-20" y="115" width="90" height="35" as="geometry" />
        </mxCell>
        <mxCell id="zyrNzVNy1EQZd9AmBoAl-34" style="edgeStyle=orthogonalEdgeStyle;rounded=0;orthogonalLoop=1;jettySize=auto;html=1;exitX=1;exitY=0.5;exitDx=0;exitDy=0;entryX=0;entryY=0.5;entryDx=0;entryDy=0;" edge="1" parent="1" source="zyrNzVNy1EQZd9AmBoAl-7" target="zyrNzVNy1EQZd9AmBoAl-25">
          <mxGeometry relative="1" as="geometry" />
        </mxCell>
        <mxCell id="zyrNzVNy1EQZd9AmBoAl-7" value="" style="rounded=0;whiteSpace=wrap;html=1;" vertex="1" parent="1">
          <mxGeometry x="370" y="-190" width="410" height="220" as="geometry" />
        </mxCell>
        <mxCell id="zyrNzVNy1EQZd9AmBoAl-21" value="国旗1" style="rounded=0;whiteSpace=wrap;html=1;" vertex="1" parent="1">
          <mxGeometry x="395" y="-115" width="120" height="60" as="geometry" />
        </mxCell>
        <mxCell id="zyrNzVNy1EQZd9AmBoAl-22" value="国旗2锁定状态" style="rounded=0;whiteSpace=wrap;html=1;" vertex="1" parent="1">
          <mxGeometry x="540" y="-115" width="120" height="60" as="geometry" />
        </mxCell>
        <mxCell id="zyrNzVNy1EQZd9AmBoAl-23" value="确定" style="rounded=1;whiteSpace=wrap;html=1;" vertex="1" parent="1">
          <mxGeometry x="515" y="-40" width="120" height="60" as="geometry" />
        </mxCell>
        <mxCell id="zyrNzVNy1EQZd9AmBoAl-24" value="抽取" style="rounded=1;whiteSpace=wrap;html=1;" vertex="1" parent="1">
          <mxGeometry x="655" y="-40" width="120" height="60" as="geometry" />
        </mxCell>
        <mxCell id="zyrNzVNy1EQZd9AmBoAl-25" value="" style="rounded=0;whiteSpace=wrap;html=1;" vertex="1" parent="1">
          <mxGeometry x="840" y="-190" width="410" height="220" as="geometry" />
        </mxCell>
        <mxCell id="zyrNzVNy1EQZd9AmBoAl-30" value="恭喜得国旗xxx" style="rounded=0;whiteSpace=wrap;html=1;" vertex="1" parent="1">
          <mxGeometry x="885" y="-160" width="315" height="150" as="geometry" />
        </mxCell>
        <mxCell id="zyrNzVNy1EQZd9AmBoAl-31" value="国旗" style="rounded=0;whiteSpace=wrap;html=1;" vertex="1" parent="1">
          <mxGeometry x="370" y="-190" width="140" height="40" as="geometry" />
        </mxCell>
        <mxCell id="zyrNzVNy1EQZd9AmBoAl-32" value="球场" style="rounded=0;whiteSpace=wrap;html=1;" vertex="1" parent="1">
          <mxGeometry x="510" y="-190" width="160" height="40" as="geometry" />
        </mxCell>
        <mxCell id="zyrNzVNy1EQZd9AmBoAl-33" value="足球" style="rounded=0;whiteSpace=wrap;html=1;" vertex="1" parent="1">
          <mxGeometry x="640" y="-190" width="140" height="40" as="geometry" />
        </mxCell>
      </root>
    </mxGraphModel>
  </diagram>
</mxfile>
